<svg xmlns="http://www.w3.org/2000/svg" xmlns:xlink="http://www.w3.org/1999/xlink" viewBox="0 0 891.83 792.15"><defs><clipPath id="clip-path"><rect x="663.27" y="494.79" width="32.41" height="32.41" style="fill:none"/></clipPath><clipPath id="clip-path-2"><rect x="248.25" y="332.15" width="32.41" height="32.41" style="fill:none"/></clipPath><clipPath id="clip-path-3"><rect x="160.32" y="302.84" width="32.41" height="32.41" style="fill:none"/></clipPath><clipPath id="clip-path-4"><rect x="295.15" y="86.59" width="32.41" height="32.41" style="fill:none"/></clipPath><clipPath id="clip-path-5"><rect x="138.18" y="403.14" width="32.41" height="32.41" style="fill:none"/></clipPath><clipPath id="clip-path-6"><rect x="67.83" y="202.34" width="32.41" height="32.41" style="fill:none"/></clipPath><clipPath id="clip-path-7"><rect x="361.46" y="230.67" width="32.41" height="32.41" style="fill:none"/></clipPath><clipPath id="clip-path-8"><rect x="389.71" y="534.52" width="32.41" height="32.41" style="fill:none"/></clipPath><clipPath id="clip-path-9"><rect x="570.13" y="207.55" width="32.41" height="32.41" style="fill:none"/></clipPath><clipPath id="clip-path-10"><rect x="570.13" y="89.66" width="32.41" height="32.41" style="fill:none"/></clipPath><clipPath id="clip-path-11"><rect x="22.36" y="378.02" width="32.41" height="32.41" style="fill:none"/></clipPath><clipPath id="clip-path-12"><rect x="270.82" y="466.36" width="32.41" height="32.41" style="fill:none"/></clipPath><clipPath id="clip-path-13"><rect x="401.74" y="145.9" width="32.41" height="32.41" style="fill:none"/></clipPath><clipPath id="clip-path-14"><rect x="744.99" y="226.66" width="32.41" height="32.41" style="fill:none"/></clipPath><clipPath id="clip-path-15"><rect x="694.19" y="377.59" width="32.41" height="32.41" style="fill:none"/></clipPath><clipPath id="clip-path-16"><rect x="541.65" y="372.04" width="32.41" height="32.41" style="fill:none"/></clipPath><clipPath id="clip-path-17"><rect x="494.35" y="259.04" width="32.41" height="32.41" style="fill:none"/></clipPath><clipPath id="clip-path-18"><rect x="827.84" y="162.65" width="32.41" height="32.41" style="fill:none"/></clipPath><clipPath id="clip-path-19"><rect x="166.08" y="158.74" width="32.41" height="32.41" style="fill:none"/></clipPath><clipPath id="clip-path-20"><rect x="460.48" y="597.09" width="32.41" height="32.41" style="fill:none"/></clipPath><clipPath id="clip-path-21"><rect x="348.45" y="686.78" width="32.41" height="32.41" style="fill:none"/></clipPath><clipPath id="clip-path-22"><rect x="288.59" y="159.47" width="32.41" height="32.41" style="fill:none"/></clipPath><clipPath id="clip-path-23"><rect x="361.79" y="600.11" width="32.41" height="32.41" style="fill:none"/></clipPath><clipPath id="clip-path-24"><rect x="198.96" y="230.8" width="32.41" height="32.41" style="fill:none"/></clipPath><clipPath id="clip-path-25"><rect x="144.25" y="574.06" width="32.41" height="32.41" style="fill:none"/></clipPath><clipPath id="clip-path-26"><rect x="385.89" y="63.41" width="32.41" height="32.41" style="fill:none"/></clipPath><clipPath id="clip-path-27"><rect x="576.08" y="639.65" width="32.41" height="32.41" style="fill:none"/></clipPath><clipPath id="clip-path-28"><rect x="326.84" width="32.41" height="32.41" style="fill:none"/></clipPath><clipPath id="clip-path-29"><rect x="389.99" y="379.36" width="32.41" height="32.41" style="fill:none"/></clipPath><clipPath id="clip-path-30"><rect x="492.68" y="484.26" width="32.41" height="32.41" style="fill:none"/></clipPath></defs><title>web(4-3)</title><g id="Layer_2" data-name="Layer 2"><g id="text"><text transform="translate(249.31 379.92)" style="font-size:13.026700019836426px;font-family:HelveticaNeue, Helvetica Neue">Dana</text><text transform="translate(138.95 350.61)" style="font-size:13.026700019836426px;font-family:HelveticaNeue, Helvetica Neue">Mikey Alexi<tspan x="66.1" y="0" style="letter-spacing:-0.07399166220395571em">’</tspan><tspan x="68.75" y="0">s</tspan><tspan x="5.54" y="15.63">Roommate</tspan></text><text transform="translate(269.16 131.11)" style="font-size:13.026700019836426px;font-family:HelveticaNeue, Helvetica Neue">Mari Cohen</text><text transform="translate(121.03 450.91)" style="font-size:13.026700019836426px;font-family:HelveticaNeue, Helvetica Neue">Nick Alexi<tspan x="57.64" y="0" style="letter-spacing:-0.07399166220395571em">’</tspan><tspan x="60.3" y="0">s</tspan><tspan x="1.31" y="15.63">Roommate</tspan></text><text transform="translate(41.46 250.11)" style="font-size:13.026700019836426px;font-family:HelveticaNeue, Helvetica Neue">Anne <tspan x="33.54" y="0" style="letter-spacing:-0.11098749330593356em">T</tspan><tspan x="39.57" y="0">salo</tspan><tspan x="63.45" y="0" style="letter-spacing:-0.017991893545034825em">f</tspan><tspan x="67.07" y="0">f</tspan></text><text transform="translate(334.18 278.44)" style="font-size:13.026700019836426px;font-family:HelveticaNeue, Helvetica Neue">Ca<tspan x="16.4" y="0" style="letter-spacing:-0.017991893545034825em">r</tspan><tspan x="20.5" y="0">olyn Gearig</tspan></text><text transform="translate(388.93 582.29)" style="font-size:13.026700019836426px;font-family:HelveticaNeue, Helvetica Neue">Perah</text><text transform="translate(550.19 255.32)" style="font-size:13.026700019836426px;font-family:HelveticaNeue, Helvetica Neue">Emma Doud</text><text transform="translate(657.34 542.56)" style="font-size:13.026700019836426px;font-family:HelveticaNeue, Helvetica Neue">Laura V</text><text transform="translate(556.6 137.43)" style="font-size:13.026700019836426px;font-family:HelveticaNeue, Helvetica Neue">Joe B<tspan x="33.78" y="0" style="letter-spacing:-0.017991893545034825em">r</tspan><tspan x="37.88" y="0">ead</tspan><tspan x="17.98" y="15.63">Guy</tspan></text><text transform="translate(16.43 425.78)" style="font-size:13.026700019836426px;font-family:HelveticaNeue, Helvetica Neue">Isabelle</text><text transform="translate(497.6 532.68)" style="font-size:13.026700019836426px;font-family:HelveticaNeue, Helvetica Neue">Syd</text><text transform="translate(260.29 514.12)" style="font-size:13.026700019836426px;font-family:HelveticaNeue, Helvetica Neue">Mckenna</text><text transform="translate(394.73 193.67)" style="font-size:13.026700019836426px;font-family:HelveticaNeue, Helvetica Neue">Clarissa</text><text transform="translate(311.95 50.37)" style="font-size:13.026700019836426px;font-family:HelveticaNeue, Helvetica Neue">Maria Ca<tspan x="52.59" y="0" style="letter-spacing:-0.017991893545034825em">r</tspan><tspan x="56.69" y="0">o</tspan><tspan x="64.17" y="0" style="letter-spacing:-0.07399166220395571em">’</tspan><tspan x="66.83" y="0">s</tspan><tspan x="4.57" y="15.63">Roommate</tspan></text><text transform="translate(717.51 274.43)" style="font-size:13.026700019836426px;font-family:HelveticaNeue, Helvetica Neue">Brandon Alexi<tspan x="81.53" y="0" style="letter-spacing:-0.07399166220395571em">’</tspan><tspan x="84.19" y="0">s </tspan><tspan x="27.02" y="15.63">Friend</tspan></text><text transform="translate(663.38 425.36)" style="font-size:13.026700019836426px;font-family:HelveticaNeue, Helvetica Neue">Emma <tspan x="40.8" y="0" style="letter-spacing:-0.11102497641748572em">T</tspan><tspan x="46.83" y="0">egwyn</tspan><tspan x="84.93" y="0" style="letter-spacing:-0.07399166220395571em">’</tspan><tspan x="87.59" y="0">s</tspan><tspan x="26.67" y="15.63">Cousin</tspan></text><text transform="translate(531.94 419.81)" style="font-size:13.026700019836426px;font-family:HelveticaNeue, Helvetica Neue"><tspan style="letter-spacing:-0.11102497641748572em">T</tspan><tspan x="6.03" y="0">egwyn</tspan></text><text transform="translate(483.58 306.81)" style="font-size:13.026700019836426px;font-family:HelveticaNeue, Helvetica Neue">Cat Kenzie</text><text transform="translate(807.59 210.41)" style="font-size:13.026700019836426px;font-family:HelveticaNeue, Helvetica Neue">Will Brandon<tspan x="-1.56" y="15.63">Alexi</tspan><tspan x="26.41" y="15.63" style="letter-spacing:-0.07399166220395571em">’</tspan><tspan x="29.06" y="15.63">s Friend</tspan></text><text transform="translate(315.74 734.74)" style="font-size:13.026700019836426px;font-family:HelveticaNeue, Helvetica Neue">Liz Her Sister Has<tspan x="-1.59" y="15.63">Made B</tspan><tspan x="44.02" y="15.63" style="letter-spacing:-0.017991893545034825em">r</tspan><tspan x="48.12" y="15.63">ead Every </tspan><tspan x="1.78" y="31.26">Day Of Qurantine</tspan></text><text transform="translate(438.36 644.86)" style="font-size:13.026700019836426px;font-family:HelveticaNeue, Helvetica Neue">Eve B<tspan x="34.01" y="0" style="letter-spacing:-0.017991893545034825em">r</tspan><tspan x="38.12" y="0">ooklyn</tspan><tspan x="-11.35" y="15.63">B</tspan><tspan x="-2.42" y="15.63" style="letter-spacing:-0.017991893545034825em">r</tspan><tspan x="1.68" y="15.63">ead Enthusiast</tspan></text><text transform="translate(146.78 206.32)" style="font-size:13.026700019836426px;font-family:HelveticaNeue, Helvetica Neue">Sonya B<tspan x="49.21" y="0" style="letter-spacing:-0.017991893545034825em">r</tspan><tspan x="53.32" y="0">ead</tspan><tspan x="9.17" y="15.63">Superstar</tspan></text><text transform="translate(271.61 205.94)" style="font-size:13.026700019836426px;font-family:HelveticaNeue, Helvetica Neue">Addie Ca<tspan x="53.8" y="0" style="letter-spacing:-0.017991893545034825em">r</tspan><tspan x="57.9" y="0">o</tspan><tspan x="65.38" y="0" style="letter-spacing:-0.07399166220395571em">’</tspan><tspan x="68.04" y="0">s </tspan><tspan x="5.18" y="15.63">Roommate</tspan></text><text transform="translate(336.5 645.28)" style="font-size:13.026700019836426px;font-family:HelveticaNeue, Helvetica Neue"><tspan style="letter-spacing:-0.09198355574899053em">T</tspan><tspan x="6.28" y="0" style="letter-spacing:-0.017991893545034825em">r</tspan><tspan x="10.38" y="0">evor Perah</tspan><tspan x="73.34" y="0" style="letter-spacing:-0.07399166220395571em">’</tspan><tspan x="76" y="0">s</tspan><tspan x="9.16" y="15.63">Roommate</tspan></text><text transform="translate(187.24 278.58)" style="font-size:13.026700019836426px;font-family:HelveticaNeue, Helvetica Neue">Isa Flo<tspan x="38.35" y="0" style="letter-spacing:-0.017991893545034825em">r</tspan><tspan x="42.45" y="0">es</tspan></text><text transform="translate(132.03 621.36)" style="font-size:13.026700019836426px;font-family:Calibri">Chris F<tspan x="35.35" y="0" style="letter-spacing:-0.016117737967427027em">r</tspan><tspan x="39.68" y="0">om </tspan><tspan x="5.26" y="15.63">Au</tspan><tspan x="19.65" y="15.63" style="letter-spacing:-0.011244933465646765em">s</tspan><tspan x="24.59" y="15.63">t</tspan><tspan x="28.96" y="15.63" style="letter-spacing:-0.02050326201902927em">r</tspan><tspan x="33.23" y="15.63">alia</tspan></text><text transform="translate(361.58 111.18)" style="font-size:13.026700019836426px;font-family:HelveticaNeue, Helvetica Neue">Other Ca<tspan x="52.6" y="0" style="letter-spacing:-0.017991893545034825em">r</tspan><tspan x="56.7" y="0">olyn</tspan></text><text transform="translate(572.32 687.42)" style="font-size:13.026700019836426px;font-family:HelveticaNeue, Helvetica Neue">Rachel</text><text transform="translate(369.47 427.13)" style="font-size:13.026700019836426px;font-family:HelveticaNeue, Helvetica Neue">Alexi Ba<tspan x="47.51" y="0" style="letter-spacing:-0.017991893545034825em">r</tspan><tspan x="51.61" y="0">dha</tspan></text><line x1="405.93" y1="393.53" x2="377.92" y2="246.98" style="fill:none;stroke:#000;stroke-miterlimit:10;stroke-width:0.25px"/><line x1="409.54" y1="392.35" x2="505.71" y2="278.28" style="fill:none;stroke:#000;stroke-miterlimit:10;stroke-width:0.25px"/><line x1="406.17" y1="550.6" x2="406.17" y2="401.4" style="fill:none;stroke:#000;stroke-miterlimit:10;stroke-width:0.25px"/><line x1="510.37" y1="501.4" x2="404.87" y2="395.89" style="fill:none;stroke:#000;stroke-miterlimit:10;stroke-width:0.25px"/><line x1="562.14" y1="388.8" x2="413.03" y2="393.86" style="fill:none;stroke:#000;stroke-miterlimit:10;stroke-width:0.25px"/><line x1="402.98" y1="394.49" x2="260.85" y2="349.09" style="fill:none;stroke:#000;stroke-miterlimit:10;stroke-width:0.25px"/><line x1="284.26" y1="486.18" x2="401.72" y2="394.18" style="fill:none;stroke:#000;stroke-miterlimit:10;stroke-width:0.25px"/><line x1="719.11" y1="391.12" x2="569.91" y2="391.12" style="fill:none;stroke:#000;stroke-miterlimit:10;stroke-width:0.25px"/><line x1="476.93" y1="616.29" x2="409.69" y2="548.84" style="fill:none;stroke:#000;stroke-miterlimit:10;stroke-width:0.25px"/><line x1="594.17" y1="647.55" x2="404.75" y2="550.62" style="fill:none;stroke:#000;stroke-miterlimit:10;stroke-width:0.25px"/><line x1="377.27" y1="619.54" x2="405.93" y2="550.5" style="fill:none;stroke:#000;stroke-miterlimit:10;stroke-width:0.25px"/><line x1="366.2" y1="708.04" x2="377.01" y2="613.42" style="fill:none;stroke:#000;stroke-miterlimit:10;stroke-width:0.25px"/><line x1="156.55" y1="592.66" x2="284.13" y2="486.02" style="fill:none;stroke:#000;stroke-miterlimit:10;stroke-width:0.25px"/><line x1="150.61" y1="417.63" x2="404.28" y2="392.18" style="fill:none;stroke:#000;stroke-miterlimit:10;stroke-width:0.25px"/><line x1="264.59" y1="352.5" x2="176.66" y2="319.28" style="fill:none;stroke:#000;stroke-miterlimit:10;stroke-width:0.25px"/><line x1="264.59" y1="352.5" x2="215.09" y2="246.98" style="fill:none;stroke:#000;stroke-miterlimit:10;stroke-width:0.25px"/><line x1="264.59" y1="348.59" x2="90.69" y2="223.53" style="fill:none;stroke:#000;stroke-miterlimit:10;stroke-width:0.25px"/><line x1="211.18" y1="239.16" x2="184.48" y2="178.59" style="fill:none;stroke:#000;stroke-miterlimit:10;stroke-width:0.25px"/><line x1="379.09" y1="251.36" x2="348.61" y2="19.66" style="fill:none;stroke:#000;stroke-miterlimit:10;stroke-width:0.25px"/><line x1="375.18" y1="251.36" x2="404.63" y2="79.59" style="fill:none;stroke:#000;stroke-miterlimit:10;stroke-width:0.25px"/><line x1="375.32" y1="251.54" x2="321.91" y2="105.64" style="fill:none;stroke:#000;stroke-miterlimit:10;stroke-width:0.25px"/><line x1="377.79" y1="251.36" x2="418.31" y2="165.56" style="fill:none;stroke:#000;stroke-miterlimit:10;stroke-width:0.25px"/><line x1="370.76" y1="239.82" x2="308.88" y2="177.94" style="fill:none;stroke:#000;stroke-miterlimit:10;stroke-width:0.25px"/><line x1="509.85" y1="280.12" x2="586.35" y2="223.53" style="fill:none;stroke:#000;stroke-miterlimit:10;stroke-width:0.25px"/><line x1="405.93" y1="393.53" x2="586.35" y2="105.64" style="fill:none;stroke:#000;stroke-miterlimit:10;stroke-width:0.25px"/><line x1="404.63" y1="396.14" x2="844.93" y2="178.59" style="fill:none;stroke:#000;stroke-miterlimit:10;stroke-width:0.25px"/><line x1="408.66" y1="397.31" x2="760.26" y2="246.98" style="fill:none;stroke:#000;stroke-miterlimit:10;stroke-width:0.25px"/><line x1="38.58" y1="395.48" x2="400.07" y2="395.48" style="fill:none;stroke:#000;stroke-miterlimit:10;stroke-width:0.25px"/><line x1="404.63" y1="396.14" x2="679.49" y2="514.03" style="fill:none;stroke:#000;stroke-miterlimit:10;stroke-width:0.25px"/><g style="clip-path:url(#clip-path)"><path d="M679.48,527.2A16.21,16.21,0,1,0,663.27,511a16.2,16.2,0,0,0,16.21,16.2" style="fill:#a7a396"/></g><g style="clip-path:url(#clip-path-2)"><path d="M264.45,364.56a16.21,16.21,0,1,0-16.2-16.21,16.21,16.21,0,0,0,16.2,16.21" style="fill:#fff"/></g><g style="clip-path:url(#clip-path-3)"><path d="M176.52,335.25A16.21,16.21,0,1,0,160.32,319a16.21,16.21,0,0,0,16.2,16.21" style="fill:#fcb76b"/></g><g style="clip-path:url(#clip-path-4)"><path d="M311.35,119a16.21,16.21,0,1,0-16.2-16.2,16.2,16.2,0,0,0,16.2,16.2" style="fill:#eccc45"/></g><g style="clip-path:url(#clip-path-5)"><path d="M154.38,435.55a16.21,16.21,0,1,0-16.2-16.2,16.2,16.2,0,0,0,16.2,16.2" style="fill:#ecd095"/></g><g style="clip-path:url(#clip-path-6)"><path d="M84,234.75a16.21,16.21,0,1,0-16.2-16.2A16.2,16.2,0,0,0,84,234.75" style="fill:#2941a0"/></g><g style="clip-path:url(#clip-path-7)"><path d="M377.66,263.08a16.21,16.21,0,1,0-16.2-16.21,16.21,16.21,0,0,0,16.2,16.21" style="fill:#ffec00"/></g><g style="clip-path:url(#clip-path-8)"><path d="M405.92,566.93a16.21,16.21,0,1,0-16.21-16.2,16.2,16.2,0,0,0,16.21,16.2" style="fill:#6787bb"/></g><g style="clip-path:url(#clip-path-9)"><path d="M586.34,240a16.21,16.21,0,1,0-16.21-16.2A16.2,16.2,0,0,0,586.34,240" style="fill:#009245"/></g><g style="clip-path:url(#clip-path-10)"><path d="M586.34,122.07a16.21,16.21,0,1,0-16.21-16.2,16.2,16.2,0,0,0,16.21,16.2" style="fill:#571b8c"/></g><g style="clip-path:url(#clip-path-11)"><path d="M38.57,410.42a16.2,16.2,0,1,0-16.21-16.2,16.2,16.2,0,0,0,16.21,16.2" style="fill:#ff5c7b"/></g><g style="clip-path:url(#clip-path-12)"><path d="M287,498.76a16.2,16.2,0,1,0-16.2-16.2,16.2,16.2,0,0,0,16.2,16.2" style="fill:#cb7653"/></g><g style="clip-path:url(#clip-path-13)"><path d="M417.94,178.31a16.21,16.21,0,1,0-16.2-16.21,16.21,16.21,0,0,0,16.2,16.21" style="fill:#86bdb8"/></g><g style="clip-path:url(#clip-path-14)"><path d="M761.2,259.07A16.21,16.21,0,1,0,745,242.87a16.2,16.2,0,0,0,16.21,16.2" style="fill:#c649c9"/></g><g style="clip-path:url(#clip-path-15)"><path d="M710.39,410a16.2,16.2,0,1,0-16.2-16.2,16.2,16.2,0,0,0,16.2,16.2" style="fill:#a6a2ff"/></g><g style="clip-path:url(#clip-path-16)"><path d="M557.86,404.45a16.21,16.21,0,1,0-16.21-16.21,16.2,16.2,0,0,0,16.21,16.21" style="fill:#00a0d0"/></g><g style="clip-path:url(#clip-path-17)"><path d="M510.56,291.45a16.21,16.21,0,1,0-16.21-16.2,16.2,16.2,0,0,0,16.21,16.2" style="fill:#5b5452"/></g><g style="clip-path:url(#clip-path-18)"><path d="M844,195.05a16.2,16.2,0,1,0-16.2-16.2,16.2,16.2,0,0,0,16.2,16.2" style="fill:#718785"/></g><g style="clip-path:url(#clip-path-19)"><path d="M182.28,191.15a16.21,16.21,0,1,0-16.2-16.21,16.21,16.21,0,0,0,16.2,16.21" style="fill:#cc8f4e"/></g><g style="clip-path:url(#clip-path-20)"><path d="M476.69,629.49a16.2,16.2,0,1,0-16.21-16.2,16.2,16.2,0,0,0,16.21,16.2" style="fill:#de4036"/></g><g style="clip-path:url(#clip-path-21)"><path d="M364.66,719.19A16.21,16.21,0,1,0,348.45,703a16.2,16.2,0,0,0,16.21,16.2" style="fill:#b7dede"/></g><g style="clip-path:url(#clip-path-22)"><path d="M304.8,191.88a16.21,16.21,0,1,0-16.21-16.2,16.2,16.2,0,0,0,16.21,16.2" style="fill:#905d58"/></g><g style="clip-path:url(#clip-path-23)"><path d="M378,632.52a16.21,16.21,0,1,0-16.21-16.2A16.21,16.21,0,0,0,378,632.52" style="fill:#505944"/></g><g style="clip-path:url(#clip-path-24)"><path d="M215.16,263.21A16.21,16.21,0,1,0,199,247a16.2,16.2,0,0,0,16.2,16.2" style="fill:#ff8b00"/></g><g style="clip-path:url(#clip-path-25)"><path d="M160.45,606.47a16.21,16.21,0,1,0-16.2-16.21,16.2,16.2,0,0,0,16.2,16.21" style="fill:#a62921"/></g><g style="clip-path:url(#clip-path-26)"><path d="M402.09,95.82a16.21,16.21,0,1,0-16.2-16.2,16.21,16.21,0,0,0,16.2,16.2" style="fill:#f1acf9"/></g><g style="clip-path:url(#clip-path-27)"><path d="M592.28,672.06a16.21,16.21,0,1,0-16.2-16.2,16.2,16.2,0,0,0,16.2,16.2" style="fill:#c1a307"/></g><g style="clip-path:url(#clip-path-28)"><path d="M343,32.41a16.21,16.21,0,1,0-16.2-16.21A16.2,16.2,0,0,0,343,32.41" style="fill:#00db7b"/></g><g style="clip-path:url(#clip-path-29)"><path d="M406.2,411.77A16.21,16.21,0,1,0,390,395.56a16.2,16.2,0,0,0,16.21,16.21" style="fill:#173c5b"/></g><g style="clip-path:url(#clip-path-30)"><path d="M508.88,516.67a16.21,16.21,0,1,0-16.2-16.21,16.21,16.21,0,0,0,16.2,16.21" style="fill:#a4d000"/></g></g></g></svg>